<svg width="90" height="90" viewBox="0 0 90 90" fill="none" xmlns="http://www.w3.org/2000/svg">
<g clip-path="url(#clip0_3304_775)">
<rect width="90" height="90" rx="18" fill="#07BFA5"/>
<path fill-rule="evenodd" clip-rule="evenodd" d="M18.3124 20.6201C19.8951 19.9229 21 18.3405 21 16.5C21 14.0147 18.9853 12 16.5 12C14.0147 12 12 14.0147 12 16.5C12 18.574 13.4031 20.3203 15.3118 20.8415C17.4154 35.3527 29.9059 46.5 45 46.5C60.0941 46.5 72.5846 35.3527 74.6882 20.8415C76.5969 20.3203 78 18.574 78 16.5C78 14.0147 75.9853 12 73.5 12C71.0147 12 69 14.0147 69 16.5C69 18.3405 70.1049 19.9229 71.6876 20.6201C69.7038 33.5762 58.5108 43.5 45 43.5C31.4892 43.5 20.2962 33.5762 18.3124 20.6201Z" fill="white"/>
</g>
<defs>
<clipPath id="clip0_3304_775">
<rect width="90" height="90" fill="white"/>
</clipPath>
</defs>
</svg>
