<svg width="60" height="60" viewBox="0 0 60 60" fill="none" xmlns="http://www.w3.org/2000/svg">
<g clip-path="url(#clip0_3302_15657)">
<rect width="60" height="60" rx="10" fill="#07BFA5"/>
<path fill-rule="evenodd" clip-rule="evenodd" d="M12.2082 13.7468C13.2634 13.2819 14 12.227 14 11C14 9.34315 12.6569 8 11 8C9.34315 8 8 9.34315 8 11C8 12.3827 8.93539 13.5469 10.2079 13.8943C11.6102 23.5685 19.9373 31 30 31C40.0627 31 48.3898 23.5685 49.7921 13.8943C51.0646 13.5469 52 12.3827 52 11C52 9.34315 50.6569 8 49 8C47.3431 8 46 9.34315 46 11C46 12.227 46.7366 13.2819 47.7918 13.7468C46.4692 22.3842 39.0072 29 30 29C20.9928 29 13.5308 22.3842 12.2082 13.7468Z" fill="white"/>
</g>
<defs>
<clipPath id="clip0_3302_15657">
<rect width="60" height="60" fill="white"/>
</clipPath>
</defs>
</svg>
